<mxfile host="app.diagrams.net" modified="2024-07-18T14:21:18.848Z" agent="Mozilla/5.0 (X11; Linux x86_64; rv:128.0) Gecko/20100101 Firefox/128.0" etag="9gEmzjob40SJpdliCYlw" version="24.7.1" type="device">
  <diagram name="Page-1" id="ZXHHGr7Ph3yld2VZteq-">
    <mxGraphModel dx="1059" dy="576" grid="1" gridSize="10" guides="1" tooltips="1" connect="1" arrows="1" fold="1" page="1" pageScale="1" pageWidth="850" pageHeight="1100" math="0" shadow="0">
      <root>
        <mxCell id="0" />
        <mxCell id="1" parent="0" />
        <mxCell id="Vi9y_Yse4B4ee6d4M2PC-11" value="" style="ellipse;html=1;shape=startState;fillColor=#000000;strokeColor=#ff0000;" vertex="1" parent="1">
          <mxGeometry x="390" y="40" width="30" height="30" as="geometry" />
        </mxCell>
        <mxCell id="Vi9y_Yse4B4ee6d4M2PC-12" value="" style="edgeStyle=orthogonalEdgeStyle;html=1;verticalAlign=bottom;endArrow=open;endSize=8;strokeColor=#ff0000;rounded=0;" edge="1" source="Vi9y_Yse4B4ee6d4M2PC-11" parent="1">
          <mxGeometry relative="1" as="geometry">
            <mxPoint x="405" y="130" as="targetPoint" />
          </mxGeometry>
        </mxCell>
        <mxCell id="Vi9y_Yse4B4ee6d4M2PC-13" value="Player on &quot;Teleport Input Section 1&quot;" style="rounded=1;whiteSpace=wrap;html=1;" vertex="1" parent="1">
          <mxGeometry x="345" y="130" width="120" height="60" as="geometry" />
        </mxCell>
        <mxCell id="Vi9y_Yse4B4ee6d4M2PC-14" value="Player 2 on &quot;Teleport Section 2&quot;" style="rounded=1;whiteSpace=wrap;html=1;" vertex="1" parent="1">
          <mxGeometry x="160" y="200" width="120" height="60" as="geometry" />
        </mxCell>
        <mxCell id="Vi9y_Yse4B4ee6d4M2PC-15" value="Player 2 not on &quot;Teleport Section 2&quot;" style="rounded=1;whiteSpace=wrap;html=1;" vertex="1" parent="1">
          <mxGeometry x="520" y="200" width="120" height="60" as="geometry" />
        </mxCell>
        <mxCell id="Vi9y_Yse4B4ee6d4M2PC-16" value="" style="endArrow=classic;html=1;rounded=0;entryX=0.5;entryY=0;entryDx=0;entryDy=0;exitX=0;exitY=0.5;exitDx=0;exitDy=0;" edge="1" parent="1" source="Vi9y_Yse4B4ee6d4M2PC-13" target="Vi9y_Yse4B4ee6d4M2PC-14">
          <mxGeometry width="50" height="50" relative="1" as="geometry">
            <mxPoint x="340" y="160" as="sourcePoint" />
            <mxPoint x="280" y="190" as="targetPoint" />
            <Array as="points">
              <mxPoint x="220" y="160" />
            </Array>
          </mxGeometry>
        </mxCell>
        <mxCell id="Vi9y_Yse4B4ee6d4M2PC-17" value="" style="endArrow=classic;html=1;rounded=0;entryX=0.5;entryY=0;entryDx=0;entryDy=0;exitX=1;exitY=0.5;exitDx=0;exitDy=0;" edge="1" parent="1" source="Vi9y_Yse4B4ee6d4M2PC-13" target="Vi9y_Yse4B4ee6d4M2PC-15">
          <mxGeometry width="50" height="50" relative="1" as="geometry">
            <mxPoint x="350" y="170" as="sourcePoint" />
            <mxPoint x="230" y="210" as="targetPoint" />
            <Array as="points">
              <mxPoint x="580" y="160" />
            </Array>
          </mxGeometry>
        </mxCell>
        <mxCell id="Vi9y_Yse4B4ee6d4M2PC-18" value="Player 2 on &quot;Teleport Output Section 1&quot; and Player 1 on &quot;Teleport Section 2&quot;" style="rounded=1;whiteSpace=wrap;html=1;" vertex="1" parent="1">
          <mxGeometry x="160" y="390" width="120" height="60" as="geometry" />
        </mxCell>
        <mxCell id="Vi9y_Yse4B4ee6d4M2PC-19" value="" style="ellipse;html=1;shape=endState;fillColor=#000000;strokeColor=#ff0000;" vertex="1" parent="1">
          <mxGeometry x="565" y="410" width="30" height="30" as="geometry" />
        </mxCell>
        <mxCell id="Vi9y_Yse4B4ee6d4M2PC-21" value="" style="endArrow=classic;html=1;rounded=0;exitX=0.5;exitY=1;exitDx=0;exitDy=0;entryX=0.5;entryY=0;entryDx=0;entryDy=0;" edge="1" parent="1" source="Vi9y_Yse4B4ee6d4M2PC-14" target="Vi9y_Yse4B4ee6d4M2PC-18">
          <mxGeometry width="50" height="50" relative="1" as="geometry">
            <mxPoint x="230" y="390" as="sourcePoint" />
            <mxPoint x="280" y="340" as="targetPoint" />
          </mxGeometry>
        </mxCell>
        <mxCell id="Vi9y_Yse4B4ee6d4M2PC-23" value="" style="endArrow=classic;html=1;rounded=0;exitX=0.5;exitY=1;exitDx=0;exitDy=0;" edge="1" parent="1" target="Vi9y_Yse4B4ee6d4M2PC-19">
          <mxGeometry width="50" height="50" relative="1" as="geometry">
            <mxPoint x="579.63" y="260" as="sourcePoint" />
            <mxPoint x="579.63" y="390" as="targetPoint" />
          </mxGeometry>
        </mxCell>
        <mxCell id="Vi9y_Yse4B4ee6d4M2PC-24" value="" style="endArrow=classic;html=1;rounded=0;exitX=1;exitY=0.583;exitDx=0;exitDy=0;entryX=0;entryY=0.5;entryDx=0;entryDy=0;exitPerimeter=0;" edge="1" parent="1" source="Vi9y_Yse4B4ee6d4M2PC-18" target="Vi9y_Yse4B4ee6d4M2PC-19">
          <mxGeometry width="50" height="50" relative="1" as="geometry">
            <mxPoint x="240" y="280" as="sourcePoint" />
            <mxPoint x="240" y="410" as="targetPoint" />
          </mxGeometry>
        </mxCell>
      </root>
    </mxGraphModel>
  </diagram>
</mxfile>
